<svg width="18" height="20" viewBox="0 0 18 20" fill="none" xmlns="http://www.w3.org/2000/svg">
<path fill-rule="evenodd" clip-rule="evenodd" d="M6.54525 2.50019H11.454V1.04194C11.4541 1.01459 11.4489 0.987487 11.4387 0.96219C11.4285 0.936893 11.4135 0.913898 11.3945 0.894523C11.3756 0.875148 11.353 0.859775 11.3282 0.849286C11.3034 0.838796 11.2769 0.833397 11.25 0.833397H6.75C6.72308 0.833296 6.69641 0.838621 6.67153 0.849066C6.64664 0.85951 6.62403 0.874867 6.605 0.894252C6.58597 0.913637 6.57089 0.936666 6.56063 0.962013C6.55038 0.98736 6.54515 1.01452 6.54525 1.04194V2.50019ZM15.5452 3.33359H2.45475V18.3332C2.45475 18.5542 2.54096 18.7662 2.69441 18.9225C2.84786 19.0788 3.05599 19.1666 3.273 19.1666H14.727C14.944 19.1666 15.1521 19.0788 15.3056 18.9225C15.459 18.7662 15.5452 18.5542 15.5452 18.3332V3.33359ZM7.3635 6.2501C7.3635 6.13958 7.3204 6.03359 7.24367 5.95545C7.16694 5.8773 7.06288 5.8334 6.95438 5.8334C6.84587 5.8334 6.74181 5.8773 6.66508 5.95545C6.58835 6.03359 6.54525 6.13958 6.54525 6.2501V16.2501C6.54525 16.3606 6.58835 16.4666 6.66508 16.5447C6.74181 16.6229 6.84587 16.6668 6.95438 16.6668C7.06288 16.6668 7.16694 16.6229 7.24367 16.5447C7.3204 16.4666 7.3635 16.3606 7.3635 16.2501V6.2501ZM11.4548 6.2501C11.4548 6.13958 11.4116 6.03359 11.3349 5.95545C11.2582 5.8773 11.1541 5.8334 11.0456 5.8334C10.9371 5.8334 10.8331 5.8773 10.7563 5.95545C10.6796 6.03359 10.6365 6.13958 10.6365 6.2501V16.2501C10.6365 16.3606 10.6796 16.4666 10.7563 16.5447C10.8331 16.6229 10.9371 16.6668 11.0456 16.6668C11.1541 16.6668 11.2582 16.6229 11.3349 16.5447C11.4116 16.4666 11.4548 16.3606 11.4548 16.2501V6.2501ZM18 2.50019V3.33359H16.3635V18.3332C16.3636 18.5521 16.3213 18.7689 16.2391 18.9712C16.1569 19.1734 16.0364 19.3572 15.8844 19.512C15.7324 19.6668 15.552 19.7896 15.3534 19.8733C15.1548 19.9571 14.9419 20.0001 14.727 20H3.273C3.05806 20.0001 2.84522 19.9571 2.64662 19.8733C2.44803 19.7896 2.26758 19.6668 2.1156 19.512C1.96362 19.3572 1.84308 19.1734 1.76087 18.9712C1.67866 18.7689 1.6364 18.5521 1.6365 18.3332V3.33359H0V2.50019H5.727V0.833397C5.727 0.612366 5.81321 0.400389 5.96666 0.244096C6.12011 0.0878041 6.32824 0 6.54525 0L11.454 0C11.671 0 11.8791 0.0878041 12.0326 0.244096C12.186 0.400389 12.2723 0.612366 12.2723 0.833397V2.50019H18Z" fill="#6272A4"/>
</svg>
