<svg width="20" height="20" viewBox="0 0 20 20" fill="none" xmlns="http://www.w3.org/2000/svg">
<path d="M9.04064 2.91882H2.78647C2.31267 2.91882 1.85828 3.10705 1.52325 3.44209C1.18822 3.77713 1 4.23154 1 4.70536V17.2134C1 17.6872 1.18822 18.1416 1.52325 18.4767C1.85828 18.8117 2.31267 18.9999 2.78647 18.9999H15.294C15.7679 18.9999 16.2222 18.8117 16.5573 18.4767C16.8923 18.1416 17.0805 17.6872 17.0805 17.2134V10.9598" stroke="#6272A4" stroke-linecap="round" stroke-linejoin="round"/>
<path d="M15.7237 1.56215C16.0837 1.20221 16.5718 1 17.0808 1C17.5899 1 18.078 1.20221 18.4379 1.56215C18.7979 1.92209 19.0001 2.41028 19.0001 2.91931C19.0001 3.42834 18.7979 3.91652 18.4379 4.27646L9.84306 12.8717L6.22437 13.7754L7.12885 10.1566L15.7237 1.56215Z" stroke="#6272A4" stroke-linecap="round" stroke-linejoin="round"/>
</svg>
