<svg width="18" height="18" viewBox="0 0 18 18" fill="none" xmlns="http://www.w3.org/2000/svg">
<path fill-rule="evenodd" clip-rule="evenodd" d="M9 0C13.9673 0 18 4.03275 18 9C18 13.9673 13.9673 18 9 18C4.03275 18 0 13.9673 0 9C0 4.03275 4.03275 0 9 0ZM9 0.75C13.5533 0.75 17.25 4.44675 17.25 9C17.25 13.5533 13.5533 17.25 9 17.25C4.44675 17.25 0.75 13.5533 0.75 9C0.75 4.44675 4.44675 0.75 9 0.75ZM14.25 6.34275L7.49625 13.5165L3.75 9.11775L4.32075 8.631L7.524 12.393L13.704 5.829L14.25 6.34275Z" fill="#6272A4"/>
</svg>
