<svg width="24" height="20" viewBox="0 0 24 20" fill="none" xmlns="http://www.w3.org/2000/svg">
<path fill-rule="evenodd" clip-rule="evenodd" d="M13.5 19C13.4011 19 13.3044 18.9707 13.2222 18.9157C13.14 18.8608 13.0759 18.7827 13.0381 18.6913C13.0002 18.6 12.9903 18.4994 13.0096 18.4025C13.0289 18.3055 13.0765 18.2164 13.1464 18.1464C13.2164 18.0765 13.3055 18.0289 13.4025 18.0096C13.4994 17.9903 13.6 18.0002 13.6913 18.0381C13.7827 18.0759 13.8608 18.14 13.9157 18.2222C13.9707 18.3044 14 18.4011 14 18.5C14 18.6326 13.9473 18.7598 13.8536 18.8536C13.7598 18.9473 13.6326 19 13.5 19ZM13.5 17C13.2033 17 12.9133 17.088 12.6666 17.2528C12.42 17.4176 12.2277 17.6519 12.1142 17.926C12.0006 18.2001 11.9709 18.5017 12.0288 18.7926C12.0867 19.0836 12.2296 19.3509 12.4393 19.5607C12.6491 19.7704 12.9164 19.9133 13.2074 19.9712C13.4983 20.0291 13.7999 19.9993 14.074 19.8858C14.3481 19.7723 14.5824 19.58 14.7472 19.3334C14.912 19.0867 15 18.7967 15 18.5C15 18.1022 14.842 17.7206 14.5607 17.4393C14.2794 17.158 13.8978 17 13.5 17ZM7.5 19C7.40111 19 7.30444 18.9707 7.22221 18.9157C7.13999 18.8608 7.0759 18.7827 7.03806 18.6913C7.00022 18.6 6.99031 18.4994 7.00961 18.4025C7.0289 18.3055 7.07652 18.2164 7.14645 18.1464C7.21637 18.0765 7.30546 18.0289 7.40245 18.0096C7.49945 17.9903 7.59998 18.0002 7.69134 18.0381C7.7827 18.0759 7.86079 18.14 7.91573 18.2222C7.97068 18.3044 8 18.4011 8 18.5C8 18.6326 7.94732 18.7598 7.85355 18.8536C7.75979 18.9473 7.63261 19 7.5 19ZM7.5 17C7.20333 17 6.91332 17.088 6.66664 17.2528C6.41997 17.4176 6.22771 17.6519 6.11418 17.926C6.00065 18.2001 5.97094 18.5017 6.02882 18.7926C6.0867 19.0836 6.22956 19.3509 6.43934 19.5607C6.64912 19.7704 6.91639 19.9133 7.20736 19.9712C7.49834 20.0291 7.79994 19.9993 8.07403 19.8858C8.34811 19.7723 8.58238 19.58 8.7472 19.3334C8.91203 19.0867 9 18.7967 9 18.5C9 18.1022 8.84196 17.7206 8.56066 17.4393C8.27936 17.158 7.89782 17 7.5 17V17ZM24 1H21.036L17.394 16H4.073L0 3H19.522L20.25 0H24V1ZM1.419 4L4.812 15H16.606L19.28 4H1.419Z" fill="#BD93F9"/>
</svg>
