<svg width="22" height="22" viewBox="0 0 22 22" fill="none" xmlns="http://www.w3.org/2000/svg">
<path d="M15.8146 12.9497C16.896 11.1679 17.2873 9.05167 16.9145 7.00098C16.5417 4.95029 15.4306 3.1072 13.7912 1.82004C12.1519 0.532879 10.0978 -0.109181 8.0172 0.0152053C5.93661 0.139591 3.97366 1.02181 2.49932 2.49512C1.02498 3.96843 0.141398 5.93077 0.0155623 8.01127C-0.110274 10.0918 0.530354 12.1463 1.81637 13.7866C3.10239 15.4268 4.9447 16.5392 6.99513 16.9134C9.04556 17.2877 11.1621 16.8979 12.9446 15.8177L18.7296 21.6027L21.5986 18.7327L15.8146 12.9497ZM8.54561 13.8127C7.50528 13.8121 6.48849 13.503 5.62382 12.9246C4.75915 12.3461 4.08543 11.5242 3.68786 10.5628C3.29029 9.60147 3.18673 8.5438 3.39027 7.52358C3.59381 6.50335 4.09531 5.5664 4.83135 4.83119C5.5674 4.09599 6.50492 3.59555 7.52538 3.39318C8.54583 3.1908 9.60339 3.29557 10.5643 3.69424C11.5252 4.0929 12.3463 4.76756 12.9238 5.63289C13.5013 6.49822 13.8092 7.51536 13.8086 8.55569C13.8057 9.95008 13.2501 11.2864 12.2635 12.2719C11.277 13.2573 9.94 13.8114 8.54561 13.8127V13.8127Z" fill="#F8F8F2"/>
</svg>
