<svg width="24" height="19" viewBox="0 0 24 19" fill="none" xmlns="http://www.w3.org/2000/svg">
<path d="M0 3.04V15.189C0.00238043 15.9956 0.324252 16.7683 0.895145 17.3381C1.46604 17.9079 2.23943 18.2282 3.046 18.229H12.887C13.6936 18.2282 14.467 17.9079 15.0379 17.3381C15.6087 16.7683 15.9306 15.9956 15.933 15.189V13.221C15.933 13.0609 15.8694 12.9074 15.7562 12.7943C15.6431 12.6811 15.4896 12.6175 15.3295 12.6175C15.1694 12.6175 15.0159 12.6811 14.9028 12.7943C14.7896 12.9074 14.726 13.0609 14.726 13.221V15.189C14.7241 15.6773 14.529 16.145 14.1833 16.4898C13.8375 16.8346 13.3693 17.0285 12.881 17.029H3.046C2.55753 17.0287 2.08905 16.835 1.74309 16.4901C1.39713 16.1453 1.20185 15.6775 1.2 15.189V3.04C1.20159 2.55153 1.39661 2.08358 1.74238 1.73856C2.08816 1.39353 2.55653 1.19952 3.045 1.199H12.886C13.3745 1.19952 13.8428 1.39353 14.1886 1.73856C14.5344 2.08358 14.7294 2.55153 14.731 3.04V5.008C14.731 5.16806 14.7946 5.32156 14.9078 5.43474C15.0209 5.54792 15.1744 5.6115 15.3345 5.6115C15.4946 5.6115 15.6481 5.54792 15.7612 5.43474C15.8744 5.32156 15.938 5.16806 15.938 5.008V3.04C15.9356 2.23344 15.6137 1.46067 15.0429 0.890903C14.472 0.321136 13.6986 0.000790094 12.892 0H3.046C2.23919 -1.56525e-06 1.46533 0.320091 0.894271 0.89003C0.323208 1.45997 0.00158925 2.23319 0 3.04H0Z" fill="#BD93F9"/>
<path d="M18.854 13.633C18.9675 13.7457 19.121 13.809 19.281 13.809C19.441 13.809 19.5945 13.7457 19.708 13.633L23.824 9.53296C23.8799 9.47771 23.9243 9.41193 23.9546 9.3394C23.9849 9.26688 24.0005 9.18906 24.0005 9.11046C24.0005 9.03186 23.9849 8.95406 23.9546 8.88153C23.9243 8.80901 23.8799 8.74322 23.824 8.68797L19.708 4.58797C19.6523 4.53218 19.5861 4.48793 19.5133 4.45773C19.4404 4.42754 19.3623 4.41199 19.2835 4.41199C19.2046 4.41199 19.1266 4.42754 19.0537 4.45773C18.9809 4.48793 18.9147 4.53218 18.859 4.58797C18.8031 4.64321 18.7587 4.709 18.7284 4.78152C18.6981 4.85405 18.6825 4.93187 18.6825 5.01047C18.6825 5.08906 18.6981 5.16689 18.7284 5.23941C18.7587 5.31194 18.8031 5.37772 18.859 5.43297L21.95 8.51097H10.668C10.5089 8.51097 10.3563 8.57418 10.2437 8.68671C10.1312 8.79923 10.068 8.95183 10.068 9.11096C10.068 9.27009 10.1312 9.42271 10.2437 9.53523C10.3563 9.64775 10.5089 9.71097 10.668 9.71097H21.941L18.85 12.788C18.7936 12.8431 18.7489 12.9089 18.7185 12.9817C18.688 13.0544 18.6726 13.1325 18.6729 13.2113C18.6733 13.2901 18.6895 13.3681 18.7206 13.4405C18.7517 13.513 18.7971 13.5784 18.854 13.633V13.633Z" fill="#BD93F9"/>
</svg>
