<svg width="315" height="263" viewBox="0 0 315 263" fill="none" xmlns="http://www.w3.org/2000/svg">
<g clip-path="url(#clip0_4_468)">
<path d="M14.637 250.611C19.0063 258.716 28.2797 262.195 28.2797 262.195C28.2797 262.195 30.4689 252.534 26.0996 244.429C21.7302 236.325 12.4568 232.846 12.4568 232.846C12.4568 232.846 10.2676 242.507 14.637 250.611Z" fill="#282A36"/>
<path d="M17.6402 247.945C25.5287 252.692 28.5668 262.12 28.5668 262.12C28.5668 262.12 18.8151 263.852 10.9266 259.106C3.03811 254.359 0 244.931 0 244.931C0 244.931 9.75168 243.198 17.6402 247.945Z" fill="#BD93F9"/>
<path d="M194.501 12.6259H145.283V13.3291H194.501V12.6259Z" fill="#F2F2F2"/>
<path d="M181.142 13.1532H180.439V19.6581H181.142V13.1532Z" fill="#F2F2F2"/>
<path d="M159.697 13.1532H158.994V19.6581H159.697V13.1532Z" fill="#F2F2F2"/>
<path d="M219.462 46.3811H170.244V47.0843H219.462V46.3811Z" fill="#F2F2F2"/>
<path d="M184.306 40.052H183.603V46.5569H184.306V40.052Z" fill="#F2F2F2"/>
<path d="M205.751 40.052H205.048V46.5569H205.751V40.052Z" fill="#F2F2F2"/>
<path d="M284.853 62.2039H235.634V62.9071H284.853V62.2039Z" fill="#F2F2F2"/>
<path d="M249.697 55.8748H248.994V62.3797H249.697V55.8748Z" fill="#F2F2F2"/>
<path d="M271.142 55.8748H270.439V62.3797H271.142V55.8748Z" fill="#F2F2F2"/>
<path d="M279.931 225.354H230.712V226.058H279.931V225.354Z" fill="#F2F2F2"/>
<path d="M244.775 219.025H244.072V225.53H244.775V219.025Z" fill="#F2F2F2"/>
<path d="M266.22 219.025H265.517V225.53H266.22V219.025Z" fill="#F2F2F2"/>
<path d="M195.908 112.485H146.689V113.188H195.908V112.485Z" fill="#F2F2F2"/>
<path d="M160.751 106.156H160.048V112.661H160.751V106.156Z" fill="#F2F2F2"/>
<path d="M182.197 106.156H181.494V112.661H182.197V106.156Z" fill="#F2F2F2"/>
<path d="M211.376 197.225H162.158V197.928H211.376V197.225Z" fill="#F2F2F2"/>
<path d="M176.22 190.896H175.517V197.401H176.22V190.896Z" fill="#F2F2F2"/>
<path d="M197.665 190.896H196.962V197.401H197.665V190.896Z" fill="#F2F2F2"/>
<path d="M290.126 171.557H240.908V172.26H290.126V171.557Z" fill="#F2F2F2"/>
<path d="M254.97 165.228H254.267V171.733H254.97V165.228Z" fill="#F2F2F2"/>
<path d="M276.416 165.228H275.712V171.733H276.416V165.228Z" fill="#F2F2F2"/>
<path d="M127.287 246.9H44.0416V246.301H126.688V217.251H51.0398L47.3649 209.594L47.9049 209.334L51.4167 216.652H127.287V246.9Z" fill="#2F2E41"/>
<path d="M55.121 261.575C58.5939 261.575 61.4093 258.76 61.4093 255.286C61.4093 251.813 58.5939 248.997 55.121 248.997C51.648 248.997 48.8326 251.813 48.8326 255.286C48.8326 258.76 51.648 261.575 55.121 261.575Z" fill="#3F3D56"/>
<path d="M117.106 261.575C120.579 261.575 123.394 258.76 123.394 255.286C123.394 251.813 120.579 248.997 117.106 248.997C113.633 248.997 110.817 251.813 110.817 255.286C110.817 258.76 113.633 261.575 117.106 261.575Z" fill="#3F3D56"/>
<path d="M190.17 125.607C192.32 125.607 194.062 123.864 194.062 121.714C194.062 119.563 192.32 117.82 190.17 117.82C188.02 117.82 186.277 119.563 186.277 121.714C186.277 123.864 188.02 125.607 190.17 125.607Z" fill="#3F3D56"/>
<path d="M136.19 207.368H42.6223L22.3764 141.18H157.04L156.918 141.57L136.19 207.368ZM43.0653 206.769H135.751L156.224 141.779H23.1858L43.0653 206.769Z" fill="#2F2E41"/>
<path d="M128.886 203.924H46.7023L28.9196 145.223H147.2L147.092 145.569L128.886 203.924Z" fill="#F2F2F2"/>
<path d="M158.718 135.267L158.139 135.114L162.091 120.216H185.079V120.815H162.552L158.718 135.267Z" fill="#2F2E41"/>
<path d="M150.311 161.246H28.9189V161.845H150.311V161.246Z" fill="#2F2E41"/>
<path d="M143.359 183.314H35.6691V183.913H143.359V183.314Z" fill="#2F2E41"/>
<path d="M90.0061 141.48H89.4072V207.068H90.0061V141.48Z" fill="#2F2E41"/>
<path d="M116.819 141.461L112.52 207.048L113.118 207.087L117.417 141.5L116.819 141.461Z" fill="#2F2E41"/>
<path d="M62.6065 141.46L62.0087 141.499L66.2828 207.088L66.8805 207.049L62.6065 141.46Z" fill="#2F2E41"/>
<path d="M315 261.955H0V262.658H315V261.955Z" fill="#2F2E41"/>
<path d="M209.324 21.7567C209.324 21.7567 214.463 36.3862 211.301 38.6369C208.138 40.8876 221.975 59.2682 221.975 59.2682L238.579 54.7668L229.486 39.3871C229.486 39.3871 228.3 24.0073 228.3 21.7567C228.3 19.506 209.324 21.7567 209.324 21.7567Z" fill="#E3ABB3"/>
<path opacity="0.1" d="M209.324 21.7567C209.324 21.7567 214.463 36.3862 211.301 38.6369C208.138 40.8876 221.975 59.2682 221.975 59.2682L238.579 54.7668L229.486 39.3871C229.486 39.3871 228.3 24.0073 228.3 21.7567C228.3 19.506 209.324 21.7567 209.324 21.7567Z" fill="#93565E"/>
<path d="M200.698 126.039C200.698 126.039 199.198 144.795 200.698 154.548C202.198 164.301 204.448 191.309 204.448 191.309C204.448 191.309 204.448 242.325 212.7 243.075C220.951 243.825 226.952 244.575 227.702 241.574C228.452 238.573 223.951 237.073 226.202 235.572C228.452 234.072 229.202 228.82 226.202 222.819C223.201 216.817 226.202 156.048 226.202 156.048L240.454 194.31C240.454 194.31 241.954 225.819 243.454 230.321C244.954 234.822 241.954 243.075 247.205 243.825C252.456 244.575 258.456 240.074 261.457 238.573C264.457 237.073 256.956 237.073 258.456 236.323C259.957 235.572 264.457 233.322 262.957 232.572C261.457 231.821 259.957 195.81 259.957 195.81C259.957 195.81 255.831 118.912 250.58 115.911C245.329 112.91 241.954 118.079 241.954 118.079L200.698 126.039Z" fill="#282A36"/>
<path d="M214.2 240.074V246.076C214.2 246.076 207.449 262.391 214.2 262.391C220.951 262.391 226.202 264.081 226.202 261.831V241.574L214.2 240.074Z" fill="#282A36"/>
<path d="M258.457 240.063V246.065C258.457 246.065 265.208 262.38 258.457 262.38C251.706 262.38 246.455 264.071 246.455 261.82V241.564L258.457 240.063Z" fill="#282A36"/>
<path d="M219.826 32.635C227.283 32.635 233.328 26.589 233.328 19.1309C233.328 11.6727 227.283 5.62671 219.826 5.62671C212.369 5.62671 206.324 11.6727 206.324 19.1309C206.324 26.589 212.369 32.635 219.826 32.635Z" fill="#E3ABB3"/>
<path d="M215.7 44.2637C215.7 44.2637 219.451 55.5171 225.452 53.2664L231.452 51.0157L241.954 123.038C241.954 123.038 233.703 135.042 221.701 127.539C209.699 120.037 215.7 44.2637 215.7 44.2637Z" fill="#BD93F9"/>
<path d="M226.202 42.0129L229.577 34.8857C229.577 34.8857 249.455 44.2636 252.456 47.2646C255.456 50.2655 255.456 54.7669 255.456 54.7669L250.205 73.5226C250.205 73.5226 251.705 114.785 251.705 116.286C251.705 117.786 256.956 126.039 253.206 123.038C249.455 120.037 248.705 117.036 245.705 121.537C242.704 126.039 235.953 131.29 235.953 131.29L226.202 42.0129Z" fill="#44475A"/>
<path d="M252.456 96.0295L250.205 117.036C250.205 117.036 236.703 129.04 239.704 129.79C242.704 130.54 244.204 127.539 244.204 127.539C244.204 127.539 249.455 132.791 252.456 129.79C255.456 126.789 262.957 98.2802 262.957 98.2802L252.456 96.0295Z" fill="#E3ABB3"/>
<path d="M220.113 0.045665C217.12 -0.0613569 213.917 -0.114297 211.393 1.49897C210.232 2.30861 209.213 3.30575 208.379 4.44959C205.921 7.55735 203.798 11.4676 204.711 15.3235L205.771 14.9099C205.771 15.9391 205.542 16.9555 205.101 17.8855C205.251 17.4512 205.751 18.1532 205.617 18.5925L204.449 22.4254C206.369 21.7213 208.758 23.1469 209.05 25.1714C209.184 20.7195 209.645 15.6146 213.256 13.0078C215.077 11.6932 217.382 11.2919 219.599 10.9355C221.644 10.6068 223.789 10.2933 225.748 10.9668C227.707 11.6403 229.376 13.6443 228.931 15.6682C229.835 15.357 230.845 15.9867 231.292 16.8316C231.738 17.6765 231.762 18.6732 231.775 19.6287C232.738 20.3094 233.834 18.9578 234.226 17.8456C235.148 15.2351 235.966 12.4562 235.47 9.73274C234.974 7.00924 232.755 4.40653 229.987 4.39729C230.323 4.02821 230.502 3.5429 230.487 3.04401L228.205 2.85121C228.785 2.76919 229.317 2.48833 229.712 2.05672C228.796 3.06478 221.595 0.0986221 220.113 0.045665Z" fill="#282A36"/>
<path d="M219.451 39.7622C219.451 39.7622 213.344 33.7774 211.147 34.144C208.949 34.5106 205.949 39.7622 205.949 39.7622C205.949 39.7622 187.946 45.7641 188.696 51.7659C189.446 57.7678 197.697 87.0268 197.697 87.0268C197.697 87.0268 204.448 122.288 198.447 126.039C192.447 129.79 226.952 139.543 227.702 135.042C228.452 130.54 229.952 85.5263 227.702 78.7742C225.451 72.0221 219.451 39.7622 219.451 39.7622Z" fill="#44475A"/>
<path d="M245.705 51.7659H254.98C254.98 51.7659 261.457 80.2747 262.207 83.2756C262.957 86.2765 264.457 100.531 263.707 100.531C262.957 100.531 247.955 97.53 247.955 99.7807L245.705 51.7659Z" fill="#44475A"/>
<path d="M245.391 122.363H209.883C206.418 106.421 206.128 91.0175 209.883 76.301H245.391C239.66 90.7528 239.302 106.05 245.391 122.363Z" fill="#F2F2F2"/>
<path d="M195.447 102.782L205.949 107.283C205.949 107.283 226.202 110.284 226.202 102.031C226.202 93.7789 205.949 98.2803 205.949 98.2803L199.197 96.1213L195.447 102.782Z" fill="#E3ABB3"/>
<path d="M197.697 47.2645L188.696 49.5152L181.945 89.2775C181.945 89.2775 179.695 99.7807 183.445 100.531C187.196 101.281 197.697 107.283 197.697 107.283C197.697 107.283 199.197 96.0296 202.198 96.0296L194.697 90.0277L199.197 63.7696L197.697 47.2645Z" fill="#44475A"/>
<path d="M70.3999 124.089H21.1811V124.792H70.3999V124.089Z" fill="#F2F2F2"/>
<path d="M35.2436 117.76H34.5405V124.264H35.2436V117.76Z" fill="#F2F2F2"/>
<path d="M56.6889 117.76H55.9858V124.264H56.6889V117.76Z" fill="#F2F2F2"/>
<path d="M87.6264 20.0098H38.4077V20.713H87.6264V20.0098Z" fill="#F2F2F2"/>
<path d="M74.267 20.5372H73.5639V27.0422H74.267V20.5372Z" fill="#F2F2F2"/>
<path d="M52.8217 20.5372H52.1186V27.0422H52.8217V20.5372Z" fill="#F2F2F2"/>
<path d="M137.197 89.2784H87.978V89.9817H137.197V89.2784Z" fill="#F2F2F2"/>
<path d="M123.837 89.8059H123.134V96.3108H123.837V89.8059Z" fill="#F2F2F2"/>
<path d="M102.392 89.8059H101.689V96.3108H102.392V89.8059Z" fill="#F2F2F2"/>
<path d="M53.5248 88.9269H4.30609V89.6301H53.5248V88.9269Z" fill="#F2F2F2"/>
<path d="M40.1655 89.4543H39.4623V95.9593H40.1655V89.4543Z" fill="#F2F2F2"/>
<path d="M18.7202 89.4543H18.017V95.9593H18.7202V89.4543Z" fill="#F2F2F2"/>
<path d="M112.587 53.7651H63.3686V54.4684H112.587V53.7651Z" fill="#F2F2F2"/>
<path d="M77.4312 47.4359H76.728V53.9408H77.4312V47.4359Z" fill="#F2F2F2"/>
<path d="M98.8764 47.4359H98.1733V53.9408H98.8764V47.4359Z" fill="#F2F2F2"/>
</g>
<defs>
<clipPath id="clip0_4_468">
<rect width="315" height="263" fill="white"/>
</clipPath>
</defs>
</svg>
